<svg id="bc9a08c1-44e1-4318-b7fa-17639594539b" xmlns="http://www.w3.org/2000/svg" viewBox="0 0 639.98 473.28"><defs><style>.cls-1{fill:#ffbe47;}.cls-2{fill:#3f3d56;}.cls-3{fill:#f2f2f2;}.cls-4{fill:#2f2e41;}.cls-5{fill:#ffb8b8;}.cls-6{fill:#65baa9;}</style></defs><circle id="Ellipse_1" data-name="Ellipse 1" class="cls-1" cx="269.11" cy="185.21" r="88.13"/><path id="Path_2" data-name="Path 2" class="cls-2" d="M-385.11,216.77A88.81,88.81,0,0,1-473.93,128a88.81,88.81,0,0,1,88.8-88.82A88.81,88.81,0,0,1-296.31,128h0A88.82,88.82,0,0,1-385.11,216.77Zm0-176.26A87.46,87.46,0,0,0-472.58,128a87.46,87.46,0,0,0,87.45,87.47A87.46,87.46,0,0,0-297.66,128h0a87.45,87.45,0,0,0-87.45-87.45h0Z" transform="translate(665.75 41.65)"/><path id="Path_3" data-name="Path 3" class="cls-2" d="M-116,257.35H-665.75v-299H-116ZM-664.41,256h547.07V-40.26H-664.41Z" transform="translate(665.75 41.65)"/><rect id="Rectangle_2" data-name="Rectangle 2" class="cls-3" x="17.98" y="23.93" width="121" height="12"/><rect id="Rectangle_3" data-name="Rectangle 3" class="cls-3" x="198.98" y="23.93" width="121" height="12"/><rect id="Rectangle_4" data-name="Rectangle 4" class="cls-3" x="380.98" y="23.93" width="120" height="12"/><path id="Path_4" data-name="Path 4" class="cls-2" d="M-518.66-11.11h-122V-24.66h122Zm-120.67-1.35H-520V-23.31H-639.33Z" transform="translate(665.75 41.65)"/><path id="Path_5" data-name="Path 5" class="cls-2" d="M-337.66-11.11h-122V-24.66h122Zm-120.67-1.35H-339V-23.31H-458.33Z" transform="translate(665.75 41.65)"/><path id="Path_6" data-name="Path 6" class="cls-2" d="M-156.66-11.11h-122V-24.66h122Zm-120.66-1.35H-158V-23.31H-277.32Z" transform="translate(665.75 41.65)"/><rect id="Rectangle_5" data-name="Rectangle 5" class="cls-4" x="78.94" y="462.87" width="561.04" height="1.73"/><path id="Path_7" data-name="Path 7" class="cls-2" d="M-399,286.16l42.71-82.71,11.55,6.78-48.84,79.32Z" transform="translate(665.75 41.65)"/><path id="Path_8" data-name="Path 8" class="cls-1" d="M-423.75,304.12s7.87,6.19,8.76-7a15.17,15.17,0,0,1,5.52-10.91c3.57-2.85,8.7-4.8,14.87-1a12.8,12.8,0,0,1,6.42,12.56,19.3,19.3,0,0,1-9.65,15.09c-6.12,3.63-15.78,6.36-25.92-2.57C-423.75,310.22-429.85,303.44-423.75,304.12Z" transform="translate(665.75 41.65)"/><circle id="Ellipse_2" data-name="Ellipse 2" class="cls-5" cx="317.51" cy="133.44" r="16.45"/><path id="Path_9" data-name="Path 9" class="cls-5" d="M-356.89,99.58s4.33,22.51,2.6,26.84,24.24-1.74,24.24-1.74-5.2-22.51-4.33-27.7S-356.89,99.58-356.89,99.58Z" transform="translate(665.75 41.65)"/><path id="Path_10" data-name="Path 10" class="cls-5" d="M-385.46,177.5l1.71,23.38,8.59,36.7,2.66,10,4.35-15.58-4.33-35.5-1.46-16Z" transform="translate(665.75 41.65)"/><path id="Path_11" data-name="Path 11" class="cls-5" d="M-294.56,174.05V198.3s-2.6,31.17-7.79,39-6.92-31.25-6.92-31.25l4.07-28.57Z" transform="translate(665.75 41.65)"/><path id="Path_12" data-name="Path 12" class="cls-4" d="M-371.61,249.36s-4.33,5.2-.87,58-1.73,90.91,9.53,90.91c0,0-3.47,11.25,6.06,12.12s13.85,1.73,14.72-.87,2.6-14.72,0-14.72c0,0,0,3.47,1.73-10.39s1.73-79.65,6.06-88.31l13.85,32s0,14.72,2.6,21.64S-311,396.5-311,396.5l-.87,6.06s20.78,3.46,21.65,0,.86-8.66,0-10.39-.87-1.74.86-5.2,1.74-6.06.87-8.66-.87-58.87-.87-58.87-1.73-68.4-12.12-71.86S-371.61,249.36-371.61,249.36Z" transform="translate(665.75 41.65)"/><path id="Path_13" data-name="Path 13" class="cls-4" d="M-360.36,403.47l-6.92,12.12s-10.83-3.9-8.66,6.07a172.85,172.85,0,0,0,31.6-.44s4.33,1.73,5.19-.86-2.16-11.69-4.76-11.69S-360.36,403.47-360.36,403.47Z" transform="translate(665.75 41.65)"/><path id="Path_14" data-name="Path 14" class="cls-4" d="M-310.14,400.05s-6.93,15.58-4.33,16.45,26,4.33,27.71,5.2,10.39,1.73,11.25-3.47-4.33-6.92-4.33-6.92-9.52-1.73-12.12-10.39S-310.14,400.05-310.14,400.05Z" transform="translate(665.75 41.65)"/><path id="Path_15" data-name="Path 15" class="cls-6" d="M-328.32,122.05s-23.38-4.33-28.57,0-26.86,13-26.86,17.35,11.25,46.76,11.25,46.76-6.06,64.07,0,65.8,16.45-3.47,28.57,2.6,46.76-5.2,46.76-5.2-13-55.41-9.53-65.8,6.06-45.89,6.06-45.89S-315.33,122.05-328.32,122.05Z" transform="translate(665.75 41.65)"/><path id="Path_16" data-name="Path 16" class="cls-6" d="M-377.67,136.81l-6.08,1.73s-13,40.69-7.8,42.42,19.92,5.2,21.65,5.2S-377.67,136.81-377.67,136.81Z" transform="translate(665.75 41.65)"/><path id="Path_17" data-name="Path 17" class="cls-6" d="M-314.47,132.48l13.85,5.19s18.19,33.77,13.86,38.1-23.38,8.66-23.38,8.66Z" transform="translate(665.75 41.65)"/><path id="Path_18" data-name="Path 18" class="cls-4" d="M-348.75,71.47a9.25,9.25,0,0,0-4.12.18,10.48,10.48,0,0,0-2.92,1.92,35.49,35.49,0,0,1-5,3.31,11.53,11.53,0,0,0-3.89,2.73,7.77,7.77,0,0,0-1.1,2.07,24.91,24.91,0,0,0-1.31,13.56,6.08,6.08,0,0,0,.57,1.86c.9,1.66,2.89,2.31,4.57,3.18,3.17,1.65,5.58,4.43,8.2,6.88a15.68,15.68,0,0,0,3.23,2.5c3.72,2,8.27,1.37,12.44.65a2.24,2.24,0,0,0,2.24-2.24h0l3.3-14.82a24.34,24.34,0,0,0,.85-6.74c-.23-3.6-2.18-8.59-4.82-11.14C-339.58,72.36-344.75,71.89-348.75,71.47Z" transform="translate(665.75 41.65)"/><ellipse id="Ellipse_3" data-name="Ellipse 3" class="cls-1" cx="249.48" cy="461.43" rx="23.5" ry="1.5"/><ellipse id="Ellipse_4" data-name="Ellipse 4" class="cls-1" cx="243.98" cy="464.43" rx="24" ry="1.5"/><ellipse id="Ellipse_5" data-name="Ellipse 5" class="cls-1" cx="220.3" cy="456.27" rx="12.88" ry="0.74"/><ellipse id="Ellipse_6" data-name="Ellipse 6" class="cls-1" cx="266.4" cy="472.54" rx="12.88" ry="0.74"/></svg>